# xmcd
#
# Track frame offsets:
#       150
#       18192
#       40382
#       53697
#       63442
#       82929
#       93450
#       106755
#       121647
#       135217
#       150285
#       160740
#
# Disc length: 2305 seconds
#
# Revision: 5
# Processed by: cddbd v1.5.2PL0 Copyright (c) Steve Scherf et al.
# Submitted via: FreeDbEdit v0.1
# Normalized: r3:TDELIM( - )
#
DISCID=7a08ff0c
DTITLE=Various Artist - A Country Christmas
DYEAR=1900
DGENRE=Country
TTITLE0=The Judds - O Holy Night
TTITLE1=Amy Grant - O Come O Come Emmanuel
TTITLE2=Loretta Lynn - First Noel
TTITLE3=Brenda Lee - Jingle Bell Rock
TTITLE4=Dolly Parton - Joy to the World
TTITLE5=Tanya Tucker - Away in a Manger
TTITLE6=Carlene Carter - John Jorgenson - A 55 Telecaster Under My Tree
TTITLE7=Susan Anton - Everyday Should Be Christmas
TTITLE8=Crystal Gayle - Silent Night
TTITLE9=Debbie Boone - Gift of Life
TTITLE10=Nancy Sinatra - God Rest Ye Merry Gentlemen
TTITLE11=Trisha Yearwood - Sweet Little Jesus Boy
EXTD=
EXTT0=
EXTT1=
EXTT2=
EXTT3=
EXTT4=
EXTT5=
EXTT6=
EXTT7=
EXTT8=
EXTT9=
EXTT10=
EXTT11=
PLAYORDER=
